<svg xmlns="http://www.w3.org/2000/svg" xmlns:svg="http://www.w3.org/2000/svg" id="Layer_1" width="64" height="64" x="0" style="enable-background:new 0 0 64 64" y="0" version="1.1" viewBox="0 0 64 64" xml:space="preserve"><metadata id="metadata15"/><path style="fill:#fff" id="path4177" d="m 14.271482,10 c -2.355,0 -4.271484,1.916484 -4.271484,4.271484 l 0,35.455078 c 0,2.355 1.916484,4.273438 4.271484,4.273438 l 35.457031,0 c 2.355,0 4.271489,-1.917438 4.271489,-4.273438 l 0,-35.455078 C 54.000002,11.916484 52.083513,10 49.728513,10 l -35.457031,0 z m 22.626951,4.935546 c 0.388,0 0.739709,0.176376 0.97071,0.484376 0.347,0.461999 0.37017,1.11428 0.07617,2.113281 l -3.035159,10.453125 c -0.171,0.331 -0.21809,0.633969 -0.121091,0.792968 0.098,0.16 0.391621,0.259766 0.765621,0.259766 l 7.6836,0 c 1.636,0 2.13606,0.742547 2.28906,1.185547 0.15,0.438 0.215609,1.314594 -1.02539,2.308594 l -15.72461,15.507812 c -0.596001,0.689 -1.12878,1.023438 -1.675781,1.023438 -0.387,0 -0.740709,-0.177375 -0.970709,-0.484375 -0.346001,-0.463 -0.36917,-1.115282 -0.07617,-2.113282 l 3.03516,-10.453124 c 0.171,-0.33 0.21809,-0.635922 0.12109,-0.794922 -0.098,-0.159999 -0.38967,-0.259766 -0.76367,-0.259766 l -7.685546,0 c -1.637,0 -2.136063,-0.742548 -2.289063,-1.185547 -0.150001,-0.438001 -0.215562,-1.313642 1.023438,-2.306641 l 15.72265,-15.509765 c 0.598,-0.69 1.13369,-1.021484 1.67969,-1.021485 z"/></svg>