<svg xmlns="http://www.w3.org/2000/svg" xmlns:svg="http://www.w3.org/2000/svg" xmlns:xlink="http://www.w3.org/1999/xlink" id="Layer_1" width="64" height="64" x="0" style="enable-background:new 0 0 64 64" y="0" version="1.1" viewBox="0 0 64 64" xml:space="preserve"><metadata id="metadata13"/><defs id="defs11"><linearGradient id="linearGradient843"><stop style="stop-color:#fff;stop-opacity:1" id="stop839" offset="0"/><stop style="stop-color:#fff;stop-opacity:0" id="stop841" offset="1"/></linearGradient><linearGradient id="linearGradient845" x1="46.757" x2="46.757" y1="41.991" y2="32.003" gradientTransform="matrix(0.7481203,0,0,0.79425837,5.4076393,4.515979)" gradientUnits="userSpaceOnUse" xlink:href="#linearGradient843"/></defs><rect style="opacity:0;fill:#fff" id="icon-m-time-date_1_" width="64" height="64" x="0" y="0"/><path id="path3" d="M 32,56.55 C 18.462,56.55 7.449,45.537 7.449,32 7.449,18.462 18.462,7.448 32,7.448 45.537,7.448 56.551,18.462 56.551,32 56.551,45.537 45.537,56.55 32,56.55 Z m 0,-47 C 19.622,9.55 9.551,19.621 9.551,32 9.551,44.378 19.621,54.448 32,54.448 44.378,54.448 54.449,44.378 54.449,32 54.449,19.621 44.378,9.55 32,9.55 Z" style="opacity:.6;fill:#fff"/><path id="path5" d="m 42.499,40.079 c -0.192,0 -0.387,-0.056 -0.558,-0.171 l -10.5,-7.08 C 31.165,32.642 31,32.332 31,31.999 V 13.75 c 0,-0.552 0.448,-1 1,-1 0.552,0 1,0.448 1,1 v 17.717 l 10.059,6.783 c 0.458,0.309 0.579,0.931 0.271,1.388 -0.194,0.287 -0.51,0.441 -0.831,0.441 z" style="fill:#fff"/><path id="path5-3" d="m 43.600925,38.467949 c -0.190021,0.0275 -0.391031,0 -0.576737,-0.08933 L 31.618482,32.875325 C 31.31869,32.730769 31.110995,32.447594 31.063306,32.118027 l 1.903195,-0.81294 10.926718,5.272516 c 0.497531,0.240224 0.706361,0.838484 0.466984,1.334882 -0.150899,0.311825 -0.441587,0.509493 -0.759278,0.555464 z" style="fill:#fff;opacity:.9"/><path style="fill:#fff;opacity:.8" id="path1083" d="m 32.910156,31.148438 -0.974609,0.595703 1.03125,-0.439453 10.925781,5.273437 c 0.07815,0.03773 0.135933,0.09677 0.199219,0.150391 0.128283,0.01186 0.255704,0.0081 0.375,-0.02734 0.307734,-0.09133 0.565596,-0.327868 0.669922,-0.658203 0.165246,-0.525743 -0.127311,-1.087986 -0.654297,-1.253907 z"/><path style="fill:#fff;opacity:.7" id="path1105" d="m 32.830078,31 -0.890625,0.742188 0.970703,-0.59375 11.572266,3.640624 c 0.07198,0.02266 0.126789,0.06912 0.189453,0.105469 0.140271,-0.003 0.278029,-0.02523 0.400391,-0.08203 0.291166,-0.135144 0.513219,-0.407999 0.568359,-0.75 0.08697,-0.544195 -0.284555,-1.057071 -0.830078,-1.144531 z"/><path style="fill:#fff;opacity:.6" id="path1151" d="M 32.730469,30.867188 31.958984,31.726562 32.830078,31 44.810547,32.917969 c 0.09361,0.01501 0.173934,0.05763 0.255859,0.0957 0.117533,-0.0265 0.230385,-0.06701 0.328125,-0.13086 0.268745,-0.175547 0.447625,-0.477843 0.453125,-0.824218 0.0079,-0.551043 -0.4339,-1.005472 -0.986328,-1.013672 z"/><path style="fill:#fff;opacity:.6" id="path5-3-6-5" d="m 31.951172,31.736328 0.0078,-0.0098 -0.01953,0.01563 z"/><path style="fill:#fff;opacity:.5" id="path1175" d="M 44.646484,29.193359 32.615234,30.75 l -0.642578,0.960938 0.757813,-0.84375 12.130859,0.177734 c 0.10139,0.0015 0.193316,0.03309 0.285156,0.0625 0.106098,-0.0427 0.205706,-0.09847 0.289063,-0.171875 0.240915,-0.212135 0.376061,-0.535297 0.332031,-0.878906 -0.07086,-0.546526 -0.573159,-0.934072 -1.121094,-0.863282 z"/><path style="fill:#fff;opacity:.5" id="path5-3-6-5-3" d="m 31.966797,31.720703 0.0059,-0.0098 -0.01367,0.01562 z"/><path style="fill:#fff;opacity:.4" id="path1199" d="m 44.535156,27.271484 c -0.129022,-0.01568 -0.263705,-0.0068 -0.396484,0.03125 l -11.66211,3.34375 -0.488281,1.039063 0.626953,-0.935547 12.03125,-1.556641 c 0.03372,-0.0044 0.06437,0.0068 0.09766,0.0059 0.172666,-0.06127 0.324492,-0.158695 0.435547,-0.291016 0.206342,-0.245875 0.290392,-0.586806 0.195312,-0.919922 -0.11403,-0.397284 -0.452776,-0.669766 -0.839844,-0.716797 z"/><path style="fill:#fff;opacity:.4" id="path5-3-6-5-3-5" d="m 31.982422,31.699219 0.0059,-0.01367 -0.01563,0.02539 z"/><path style="fill:#fff;opacity:.3" id="path1223" d="m 43.742188,25.427734 c -0.129917,0.0038 -0.261111,0.0324 -0.386719,0.08984 L 32.324219,30.566406 32,31.662109 l 0.476562,-1.015625 11.66211,-3.34375 c 0.03796,-0.01088 0.07519,-0.0035 0.113281,-0.0098 0.154508,-0.08604 0.285854,-0.201006 0.373047,-0.34375 0.167309,-0.273931 0.200398,-0.62427 0.05664,-0.939453 -0.172077,-0.375815 -0.549703,-0.593332 -0.939453,-0.582032 z"/><path style="fill:#fff;opacity:.3" id="path5-3-6-5-3-5-6" d="M 31.996094,31.673828 32,31.662109 l -0.01172,0.02344 z"/><path style="fill:#fff;opacity:.2" id="path1245" d="m 42.642578,23.664062 c -0.127772,0.02381 -0.251973,0.07226 -0.367187,0.148438 l -10.119141,6.693359 -0.154297,1.150391 0.322266,-1.089844 10.917969,-4.998047 0.134765,-0.08789 C 43.548703,25.36658 43.67646,25.208606 43.75,25.03125 c 0.122939,-0.296508 0.100922,-0.648338 -0.08984,-0.9375 -0.22812,-0.344686 -0.634263,-0.50112 -1.017578,-0.429688 z"/><path style="fill:#fff;opacity:.1" id="path1269" d="m 41.71875,22.09375 c -0.255651,-0.01307 -0.517476,0.0709 -0.722656,0.255859 l -9.009766,8.125 0.01953,1.160157 0.150391,-1.128907 10.119141,-6.693359 c 0.03672,-0.02428 0.07882,-0.02813 0.117187,-0.04687 0.1172,-0.126698 0.204677,-0.272894 0.244141,-0.431641 0.07743,-0.311505 0.0032,-0.654567 -0.228516,-0.912109 C 42.22361,22.217284 41.974401,22.106821 41.71875,22.09375 Z"/><path style="fill:#fff;opacity:.1" id="path5-3-6-5-3-5-6-2-9" d="m 32.005859,31.646484 v -0.01172 l -0.0039,0.02148 z"/></svg>