<svg xmlns="http://www.w3.org/2000/svg" xmlns:svg="http://www.w3.org/2000/svg" id="Layer_1" width="64" height="64" x="0" style="enable-background:new 0 0 64 64" y="0" version="1.1" viewBox="0 0 64 64" xml:space="preserve"><metadata id="metadata15"/><path style="fill:#fff;stroke-width:1.04265547" id="path5" d="m 22.578044,50.749031 h 31.355779 c 1.694315,0 3.071663,-1.37839 3.071663,-3.071663 V 24.663876 c 0,-1.694315 -1.377348,-3.071663 -3.071663,-3.071663 H 22.578044 c -1.693272,0 -3.071663,1.377348 -3.071663,3.071663 v 23.013492 c 0,1.693273 1.378391,3.071663 3.071663,3.071663 z M 53.933823,23.639988 c 0.565119,0 1.023888,0.458769 1.023888,1.023888 v 23.013492 c 0,0.564077 -0.458769,1.022845 -1.023888,1.022845 H 22.578044 c -0.564076,0 -1.022845,-0.458768 -1.022845,-1.022845 V 24.663876 c 0,-0.565119 0.458769,-1.023888 1.022845,-1.023888 z"/><path style="opacity:.85;fill:#fff;stroke-width:1.04265547" id="path5-6" d="m 20.443782,44.529591 h -4.121671 c -0.564076,0 -1.022845,-0.458768 -1.022845,-1.022845 V 20.493254 c 0,-0.565119 0.458769,-1.023888 1.022845,-1.023888 H 47.67789 c 0.56512,0 1.023888,0.458769 1.023888,1.023888 v 1.840093 l 2.047775,-0.07069 v -1.769401 c 0,-1.694315 -1.377348,-3.071663 -3.071663,-3.071663 H 16.322111 c -1.693272,0 -3.071663,1.377348 -3.071663,3.071663 v 23.013492 c 0,1.693273 1.378391,3.071663 3.071663,3.071663 h 4.121671 z"/><path style="opacity:.7;fill:#fff;stroke-width:1.04265547" id="path5-6-7" d="m 13.250776,40.358969 h -3.184598 c -0.5640763,0 -1.0228453,-0.458768 -1.0228453,-1.022845 V 16.322632 c 0,-0.565119 0.458769,-1.023888 1.0228453,-1.023888 h 31.355779 c 0.56512,0 1.023888,0.458769 1.023888,1.023888 v 1.102564 h 2.047775 v -1.102564 c 0,-1.694315 -1.377348,-3.071663 -3.071663,-3.071663 H 10.066178 c -1.6932723,0 -3.0716633,1.377348 -3.0716633,3.071663 v 23.013492 c 0,1.693273 1.378391,3.071663 3.0716633,3.071663 h 3.184598 z"/></svg>