<svg xmlns="http://www.w3.org/2000/svg" xmlns:svg="http://www.w3.org/2000/svg" id="Layer_1" width="64" height="64" x="0" style="enable-background:new 0 0 64 64" y="0" version="1.1" viewBox="0 0 64 64" xml:space="preserve"><metadata id="metadata23"/><path id="path11" d="m 53.865,50 -44,0 c -1.654,0 -3,-1.346 -3,-3 l 0,-30 c 0,-1.654 1.346,-3 3,-3 l 44,0 c 1.654,0 3,1.346 3,3 l 0,30 c 0,1.654 -1.345,3 -3,3 z m -44,-34 c -0.551,0 -1,0.449 -1,1 l 0,30 c 0,0.552 0.449,1 1,1 l 44,0 c 0.552,0 1,-0.448 1,-1 l 0,-30 c 0,-0.551 -0.448,-1 -1,-1 l -44,0 z" style="fill:#fff"/><path id="path11-3" d="M 39.348992,50 8.9384464,50 C 7.7952863,50 6.865,49.069714 6.865,47.926554 l 0,-20.734464 c 0,-1.143159 0.9302863,-2.073446 2.0734464,-2.073446 l 30.4105456,0 c 1.143161,0 2.073447,0.930287 2.073447,2.073446 l 0,20.734464 C 41.422439,49.069714 40.492844,50 39.348992,50 Z M 8.9384464,26.500942 c -0.380823,0 -0.6911488,0.310325 -0.6911488,0.691148 l 0,20.734464 c 0,0.381514 0.3103258,0.691148 0.6911488,0.691148 l 30.4105456,0 c 0.381515,0 0.69115,-0.309634 0.69115,-0.691148 l 0,-20.734464 c 0,-0.380823 -0.309635,-0.691148 -0.69115,-0.691148 l -30.4105456,0 z" style="fill:#fff"/><path id="path11-6" d="M 29.223192,50 8.2921187,50 C 7.5053006,50 6.865,49.3597 6.865,48.572881 l 0,-14.271186 c 0,-0.786818 0.6403006,-1.427119 1.4271187,-1.427119 l 20.9310733,0 c 0.786818,0 1.427119,0.640301 1.427119,1.427119 l 0,14.271186 C 30.650311,49.3597 30.010486,50 29.223192,50 Z M 8.2921187,33.825989 c -0.2621142,0 -0.4757063,0.213592 -0.4757063,0.475706 l 0,14.271186 c 0,0.26259 0.2135921,0.475706 0.4757063,0.475706 l 20.9310733,0 c 0.26259,0 0.475706,-0.213116 0.475706,-0.475706 l 0,-14.271186 c 0,-0.262114 -0.213116,-0.475706 -0.475706,-0.475706 l -20.9310733,0 z" style="fill:#fff"/></svg>